<svg xmlns="http://www.w3.org/2000/svg" width="512" height="512"><path fill="#FF0029" d="M246.617 127.091a31 31 0 0 1 1.988-.097c4.149-.051 8.577.85 12.673 1.459l17.967 2.677 32.659 4.881c5.885.882 11.838 1.613 17.68 2.709 2.092.391 4.783.871 6.66 1.85 4.364 2.278 8.312 6.714 11.915 10l14.265 13.003 61.716 56.159 18.447 16.793c3.04 2.773 7.126 5.785 9.445 9.084 1.763 2.507 2.667 5.253 2.698 8.264.042 4.174-1.537 7.988-4.694 10.925-3.013 2.803-7.2 4.568-11.462 4.476-3.591-.078-6.466-1.161-9.33-3.154-3.744-2.604-7.13-6.187-10.487-9.233l-21.24-19.369-36.529-33.234c-7.584-6.88-15.375-13.646-22.689-20.778-1.716 5.247-2.741 14.772-3.699 20.51l-6.869 40.828-3.919 23.437c-1.125 6.754-1.664 14.234-4.615 20.528-1.126 2.402-2.818 4.576-4.682 6.515-2.376 2.471-5.164 4.692-7.767 6.955l-12.774 11.124-36.349 31.67c-6.836 5.952-13.912 11.77-20.467 17.99l23.862 63.678 6.268 16.64c1.547 4.103 3.447 8.296 4.193 12.608.781 4.52.108 9.155-1.931 13.31-2.804 5.706-7.93 10.106-14.218 12.202-5.93 2.016-12.791 1.59-18.47-.953-4.368-1.943-8.025-5.064-10.509-8.97-2.208-3.534-3.462-7.593-4.906-11.445l-5.794-15.45-21.309-56.812c-2.874-8.828-10.576-23.978-10.231-32.366.182-4.519 1.749-8.892 4.514-12.588 3.967-5.33 10.974-10.298 16.121-14.817l35.798-31.203c-13.126.095-26.221.564-39.34.826-9.48.19-18.974.098-28.449.462-6.987 5.591-13.697 11.547-20.501 17.338l-35.333 30.044-12.765 10.91c-3.251 2.786-6.481 5.826-10.183 8.073-3.672 2.265-7.942 3.518-12.328 3.617-6.529.145-12.848-2.176-17.55-6.448-4.843-4.352-7.524-10.086-7.615-16.404-.08-6.182 2.44-12.143 7.008-16.579 5.156-5 11.07-9.517 16.563-14.2l32.335-27.505 22.741-19.389c4.244-3.632 8.45-7.55 12.965-10.87a24.8 24.8 0 0 1 7.715-3.803c6.199-1.766 19.258-1.308 26.292-1.447q17.418-.383 34.839-.601c5.168-30.243 10.529-60.505 15.23-90.814-4.261.287-8.632 1.22-12.85 1.884l-22.849 3.585-62.28 9.696c-8.503 1.314-16.993 2.815-25.516 3.995-5.26.728-9.916.441-14.299-2.685-3.257-2.326-5.69-6.08-6.22-9.916-.543-4.157.703-8.347 3.46-11.632 2.119-2.553 4.394-3.94 7.674-4.838 6.023-1.648 12.784-2.234 18.993-3.197l35.817-5.588 59.925-9.328c10.799-1.685 21.729-3.801 32.592-4.992"/><path fill="#FF0029" d="M295.711 38.115c5.166-.396 10.223-.15 15.273.993 11.642 2.641 21.698 9.528 27.962 19.15 6.274 9.73 8.152 21.423 5.216 32.468-2.94 11.023-10.432 20.482-20.807 26.27-11.18 6.274-23.292 7.158-35.736 4.174-7.367-2.266-13.731-5.734-19.198-10.94-8.344-7.87-13.007-18.558-12.955-29.686 2.101-.933 4.04-2.173 6.239-2.92 3.953-1.342 8.951-.482 13.142-.829 6.445-5.283 7.589-6.377 10.476-14.037-6.977-2.535-13.755-5.556-20.704-8.16 8.24-9.521 18.137-14.859 31.092-16.483"/><path fill="#FF0029" d="M281.379 403.067c6.376.534 13.153.104 19.578.143l.035 28.912q7.52.14 15.041.112c.178-9.71.012-19.438.061-29.15 6.487.425 13.229.108 19.745.084-.147 26.436.328 52.885-.026 79.32l-4.522.117c-5.003-.01-10.226-.303-15.205.091-.158-10.853-.02-21.728-.017-32.584-4.986-.206-10.104.24-15.055-.238-.286 10.856.235 21.736-.133 32.589-6.548.342-13.268-.343-19.77.226l.049-57.238-.061-14.13c-.012-2.628-.297-5.69.28-8.254"/><path fill="#FF0029" d="M413.379 403.07c5.494.545 13.739.11 19.556.134.331 9.598.048 19.304.05 28.915 5.008.147 10.028.099 15.038.11.245-9.705.015-19.444.081-29.155 6.47.481 13.267.128 19.776.088-.342 7.302-.01 14.766-.006 22.084.009 19.066.324 38.18-.069 57.241l-4.52.118c-4.971-.009-10.254-.36-15.19.104-.175-10.855-.023-21.734-.019-32.59-4.976-.219-10.124.269-15.055-.255-.264 10.86.233 21.742-.125 32.598-4.186.226-8.398.137-12.589.11-2.363-.014-4.858-.187-7.19.175.372-19.233.08-38.545.054-57.787l-.066-13.53c-.013-2.667-.292-5.752.274-8.36"/><path fill="#FF0029" d="M386.52 421.866c6.721-.055 13.459.168 20.175-.004-2.286 5.784-4.036 11.887-6.033 17.774l-9.334 27.486c-1.734 5.113-3.245 10.423-5.427 15.374-7.571.401-15.247.026-22.836.171-3.915-10.733-7.354-21.688-11.063-32.493-3.231-9.412-6.832-18.807-9.604-28.342 6.717.484 13.668-.101 20.436.118.834 3.777 2.271 7.547 3.434 11.254 2.841 9.051 5.93 18.095 8.326 27.26 1.439-3.41 2.238-7.277 3.321-10.82 2.829-9.253 5.488-18.612 8.605-27.778"/><path fill="#FF0029" d="M432.505 62.348c4.9-.212 9.868-.072 14.775-.081 4.349-.008 8.811-.2 13.148.071 2.056.129 4.033.405 5.421 1.991.908 1.039 1.271 2.294 1.132 3.626-.203 1.93-1.397 3.08-2.91 4.252-4.203 1.111-27.662.733-32.746.3-.969-2.5-1.525-5.548-.651-8.15.365-1.085.798-1.505 1.831-2.009"/><path fill="#FF0029" d="M247.515 38.335c.357-.132.661-.082 1.039-.07 2.16 1.518 3.75 5.33 4.966 7.596-2.899 1.945-6.292 3.498-9.404 5.125-1.924.155-4.236-.661-6.122-1.071q-.029-4.894.07-9.786a516 516 0 0 1 9.451-1.794"/><path fill="#FF0029" d="M233.816 80.156c2.714-.006 6.247 1.999 8.716 3.107-.402 2.457-.503 5.003-.719 7.482l-2.584-.227c-2.425-.103-4.757-.363-7.102-.967-1.014-.9-1.876-2.1-2.744-3.134 1.118-2.248 2.861-4.278 4.433-6.261"/><path fill="#FF0029" d="M369.491 65.073q5.735-.107 11.469.023c-.206 1.238-.218 2.397-.194 3.646a932 932 0 0 0-11.482.05c.036-1.239-.005-2.493.207-3.72"/><path fill="#FF0029" d="M392.389 65.08a261 261 0 0 1 11.475.014 24 24 0 0 0-.093 3.642 871 871 0 0 0-11.511.058z"/><path fill="#FF0029" d="M156.567 29.614c1.63-.042 3.11 1.154 4.406 1.973.431 1.252 1.396 3.183.745 4.412l-.744.193c-2.015.057-4.007-.024-6.023.123l-.002-.97c.002-2.271-.202-4.023 1.618-5.731"/><path fill="#FF0029" d="M273.164 27.12c.172.014.388.222.528.32.233 2.08-.25 4.415-.343 6.531-1.587-.162-3.178-.421-4.759-.633-.393-.179-.847-.358-1.194-.607a1.69 1.69 0 0 1-.71-1.481c.078-1.31 1.674-2.688 2.572-3.611 1.28-.253 2.609-.362 3.906-.519"/><path fill="#FF0029" d="M60.181 65.033q5-.016 10 .057c-.057 1.227-.09 2.45-.28 3.667a306 306 0 0 0-9.89.056c.017-1.266.038-2.518.17-3.78"/><path fill="#FF0029" d="M141.112 65.052a363 363 0 0 1 9.976.035q-.054 1.785-.073 3.57c-3.141.474-6.88.076-10.093.148q.07-1.878.19-3.753"/><path fill="#FF0029" d="M100.721 65.094c3.311-.116 6.625-.045 9.937-.005-.087 1.221-.093 2.442-.257 3.658q-4.977-.028-9.952.057c.053-1.201-.185-2.578.272-3.71"/><path fill="#FF0029" d="M181.585 65.087c3.329-.117 6.674-.037 10.005-.014-.137 1.228-.162 2.461-.318 3.69a405 405 0 0 0-9.895.039c.027-1.215-.131-2.54.208-3.715"/><path fill="#FF0029" d="M201.963 65.075c3.277-.083 6.557-.021 9.834.008-.057 1.12.153 2.749-.531 3.653q-4.834 0-9.669.05c.085-1.128-.244-2.741.366-3.711"/><path fill="#FF0029" d="M213.164 34.39c3.218-.36 4.332.353 6.852 2.18-1.173 1.273-2.622 2.366-3.964 3.481l-1.514 1.213c-.931-1.12-2.036-2.276-2.727-3.542-.485-.89-.604-1.512-.271-2.467.527-.614.848-.674 1.624-.864"/><path fill="#FF0029" d="M204.61 81.425c1.265-.172 2.548-.248 3.821-.352 1.457.619 2.784 1.57 4.109 2.412l-3.299 2.848-2.156 1.766c-1.338-1.275-3.36-3.2-3.278-5.114.03-.692.287-1.097.803-1.56"/><path fill="#FF0029" d="M191.921 97.575c2.755-.274 4.028.804 6.121 2.325-1.119 1.104-2.378 2.089-3.594 3.098l-2.008 1.563c-1.01-1.237-2.843-3.066-3.107-4.61-.103-.602-.039-1.094.357-1.593.472-.595 1.507-.656 2.231-.783"/><path fill="#FF0029" d="M161.251 65.054c3.353-.052 6.712.003 10.065.02a28.5 28.5 0 0 0-.154 3.73c-3.322-.175-6.72-.057-10.049-.013z"/><path fill="#FF0029" d="M121.071 65.059q4.932-.06 9.865.03c-.096 1.11.095 2.727-.549 3.637l-9.674.055c.093-1.15-.205-2.703.358-3.722"/><path fill="#FF0029" d="M242.142 65.05c2.889-.049 6.266-.368 9.101.046.665.097.672.172 1.037.669-.756.124-1.217.08-1.771.597-.119.715-.153 1.332-.886 1.768-.516.306-1.238.367-1.832.462-.355.058-.203.026-.58.14q-2.587.021-5.173.08c.074-1.25.075-2.51.104-3.762"/><path fill="#FF0029" d="M80.265 65.062c2.021-.03 8.698-.53 9.995.422l.067.604c-.787-.01-1.223-.175-1.828.327l-.072.232c-.174.535-.308 1.127-.836 1.451-.437.27-1 .457-1.481.651l-5.914.029c.105-1.247.095-2.467.069-3.716"/><path fill="#FF0029" d="M221.905 65.076c1.979-.055 3.957-.03 5.936-.01.961.61 2.114-.001 3.094.577-1.268 1.648.173 2.47-2.271 2.76-2.032.243-4.139-.353-6.106.237-.438.01-.228.072-.601-.26-.058-1.103-.06-2.2-.052-3.304"/><path fill="#FF0029" d="M262.499 65.096c1.482-.064 3.305-.387 4.561.483.535.883.168 2.245-.098 3.194-1.564-.094-3.128-.012-4.693.042.093-1.229-.073-2.52.23-3.719"/><path fill="#FF0029" d="m45.238 65.058 4.748.038c-.043 1.063.126 2.736-.47 3.641-1.536-.042-3.074.042-4.609.1.027-1.224-.097-2.615.33-3.78"/><path fill="#FF0029" d="M353.228 65.086c1.576-.038 3.155.006 4.731.029-.186 1.24-.22 2.401-.198 3.65-1.647-.069-3.282-.003-4.928.056.078-1.212-.146-2.618.395-3.735"/><path fill="#FF0029" d="m415.481 65.094 4.909-.01c-.219 1.238-.242 2.496-.303 3.749-1.636-.143-3.236-.072-4.873-.003.093-1.232-.051-2.538.267-3.736"/><path fill="#FF0029" d="M227.841 65.066c1.402-.012 2.803-.043 4.203.037l-.094 3.679c-3.075.01-6.341.182-9.392-.142 1.967-.59 4.074.006 6.106-.236 2.444-.292 1.003-1.113 2.271-2.76-.98-.58-2.133.031-3.094-.578"/><path fill="#FF0029" d="M86.11 68.75c.481-.195 1.044-.383 1.481-.652.528-.324.662-.916.836-1.451l.072-.232c.605-.502 1.04-.337 1.828-.327-.052.847.023 1.79-.599 2.458-1.028.476-2.49.245-3.618.203"/><path fill="#FF0029" d="M247.211 68.731c.377-.113.225-.081.58-.139.594-.095 1.316-.156 1.832-.462.733-.436.767-1.053.886-1.768.554-.518 1.015-.473 1.771-.597-.108.99-.207 1.974-.255 2.969-1.601.004-3.215.05-4.814-.003"/><path fill="#FF0029" d="M227.665 0h2.083q-.263 3.57-.665 7.13c-1.8-.407-4.04-.322-5.599-1.345-.456-.299-.693-.687-.753-1.197-.156-1.342 1.245-2.669 2.059-3.664.941-.34 1.919-.619 2.875-.924"/></svg>